<?xml version="1.0" encoding="utf-8"?>
<!-- Generator: Adobe Illustrator 16.0.3, SVG Export Plug-In . SVG Version: 6.00 Build 0)  -->
<!DOCTYPE svg PUBLIC "-//W3C//DTD SVG 1.1//EN" "http://www.w3.org/Graphics/SVG/1.1/DTD/svg11.dtd">
<svg version="1.1" id="Ebene_1" xmlns="http://www.w3.org/2000/svg" xmlns:xlink="http://www.w3.org/1999/xlink" x="0px" y="0px"
	 width="150.512px" height="51.165px" viewBox="50.528 23.239 150.512 51.165"
	 enable-background="new 50.528 23.239 150.512 51.165" xml:space="preserve">
<path fill="#FFFFFF" stroke="#DDDDDD" stroke-width="0.5117" stroke-miterlimit="10" d="M191.07,45.315
	c-3.583,0-6.446,1.706-8.132,4.582c-0.751-2.873-3.116-4.582-6.541-4.582c-1.044,0-2.026,0.137-2.942,0.41l-0.253-0.725
	l-7.642,1.424v-0.79c0.288-0.634,0.448-1.327,0.448-2.058c0-2.885-2.449-5.232-5.457-5.232c-3.088,0-5.599,2.348-5.599,5.234
	c0,0.935,0.263,1.869,0.721,2.633l-0.27,0.027v2.447c-1.408-2.973-4.529-3.369-6.084-3.369c-1.639,0-3.122,0.361-4.432,1.059
	c-1.077-0.643-2.478-1.085-4.11-1.085c-1.06,0-1.926,0.143-2.654,0.368l-0.225-0.688l-9.351,1.741l0.353,1.558
	c-1.527-1.802-3.829-2.995-7.104-2.995c-3.407,0-6.162,1.541-7.872,4.164v-4.256l-0.26,0.025c0.335-0.174,0.671-0.363,1-0.577
	c1.31-0.769,2.366-1.699,3.146-2.765c2.586-3.553,1.631-7.893,1.516-8.371l-1.375-5.803l-2.959,4.09
	c-0.688,0.157-1.556,0.402-2.49,0.748c-1.29-2.396-2.992-3.967-3.234-4.187l-0.127-0.115l-4.549-4.388v5.375
	c-6.241,6.804-3.738,11.643-1.746,15.389c-2.111,4.498-8.224-2.822-16.432,4.543c0,0-7.349-7.726-15.421-0.279
	c0.559-4.645-2.003-8.38-9.048-8.38c-1.187,0.029-11.161-0.095-11.161-0.109v26.771c0,0,11.587,0.063,20.621,0.066
	c0-0.789,0.038-1.51,0.038-2.738c4.88,4.859,10.933,2.805,13.485,1.652c0,11.525,19.967,9.408,20.294,1.324c3.368,0,8.772,0,8.772,0
	v-3.551c1.669,2.555,4.321,3.986,7.724,3.979c2.82,0,5.929-1.193,7.875-4.182v3.754h25.904h0.72h8.685h0.722h17.637v-3.551
	c1.668,2.555,4.32,3.986,7.724,3.979c4.521,0,9.8-3.066,9.8-11.709c-0.086-5.251-2.64-10.857-9.709-10.848L191.07,45.315z"/>
<path fill="#96BD0D" d="M64.999,54.987c2.445,2.492,3.47,6.48,5.041,9.969c-2.126,0-4.251,0-6.377,0
	c-0.505-1.551-1.096-3.426-1.684-5.099c-0.542-1.538-0.969-3.757-2.888-3.825c-0.28,2.719-0.04,5.992-0.12,8.924
	c-1.844,0-3.69,0-5.534,0c0-7.438,0-14.871,0-22.309c-0.006-0.217,0.089-0.329,0.241-0.383c5.061,0.25,11.286-0.878,14.075,2.168
	c2.738,2.938,1.56,10.166-2.761,10.555H64.999z M62.593,51.036c0.69-0.771,0.719-2.728,0-3.441c-0.75-0.742-2.089-0.398-3.61-0.51
	c0,1.558,0,3.053,0,4.588c1.373-0.127,2.734,0.309,3.585-0.637H62.593z"/>
<path fill="#96BD0D" d="M85.763,58.225c-2.928,0-5.855,0-8.784,0c-0.414,4.361,5.172,3.239,6.612,1.401
	c0.756,0.997,1.506,2.056,2.029,3.313c-2.07,1.703-4.517,2.641-7.701,2.307c-3.678-0.4-6.183-3.397-6.498-7.395
	c-0.237-3.008,0.287-6.514,2.527-8.539c2.696-2.439,8.121-2.133,10.212,0.748c1.532,2.044,1.581,4.786,1.581,8.164H85.763z
	 M76.979,54.528c1.164,0,2.357,0,3.47,0c0.784-3.855-4.134-3.668-3.479,0H76.979z"/>
<path fill="#96BD0D" d="M104.281,51.438c-0.43,0.521-1.205,0.678-2.166,0.622c0.33,0.747,0.786,2.181,0.393,3.569
	c-0.801,2.516-3.591,3.398-6.739,3.697c-0.436,0.041-1.275-0.303-1.563,0.373c0.299,0.873,1.375,0.623,1.898,0.637
	c2.271,0.063,4.328-0.045,5.761,1.021c2.461,1.806,2.029,6.729-0.363,8.659c-3.736,3.053-15.666,3.023-13.595-4.842
	c1.564,0,3.143,0,4.713,0c0.359,0.188,0.131,0.561,0.131,0.748c0.029,0.248,0.065,0.561,0.262,0.893
	c0.946,1.557,5.368,0.809,5.294-1.148c-0.085-2.205-6.258-0.895-8.061-1.656c-2.288-0.967-2.56-4.617,0.121-5.991
	c-2.409-0.948-2.857-5.638-1.084-7.774c1.431-1.727,4.193-2.4,6.619-2.296c2.292,0.125,5.172,1.745,6.857-0.382
	c0.661,1.111,0.92,2.67,1.509,3.871H104.281z M95.138,55.657c0.342,0,1.146-0.006,1.563-0.383c0.849-0.763,0.515-2.739-0.239-3.186
	c-0.293-0.174-0.772-0.156-1.204-0.127c-2.395,0.144-2.314,3.508-0.088,3.682L95.138,55.657z"/>
<polygon fill="#96BD0D" points="106.56,64.94 106.56,48.305 111.797,47.807 111.797,64.94 "/>
<path fill="#96BD0D" d="M121.94,65.356c-4.438,0-7.19-3.208-7.19-8.807c0-5.467,2.822-8.938,7.361-8.938
	c3.957,0,7.201,2.369,7.201,8.447c-0.013,6.701-3.702,9.318-7.369,9.318 M122.008,51.475c-1.066,0-1.617,0.982-1.617,5.172
	c0,3.303,0.196,4.859,1.637,4.845c1.238,0,1.616-1.573,1.616-5.598c0.015-3.353-0.39-4.411-1.634-4.411"/>
<path fill="#BD0926" d="M148.734,64.93V54.094c0-1.832-0.377-2.127-1.307-2.127c-0.413,0-1.031,0.164-1.72,0.851V64.93h-5.193
	V54.126c0-1.766-0.206-2.158-1.343-2.158c-0.446,0-0.996,0.162-1.685,0.85V64.93h-5.263V53.114c0-1.703-0.104-2.914-0.48-4.584
	l4.78-0.883c0.171,0.498,0.263,0.996,0.328,1.637c0.997-0.819,1.892-1.67,4.197-1.67c1.995,0,3.47,0.934,3.928,1.744
	c0.859-0.818,2.271-1.768,4.574-1.768c3.612,0,4.387,2.305,4.387,4.648v12.67h-5.204V64.93z"/>
<path fill="#BD0926" d="M160.672,46.467c-1.649,0-3.061-1.31-3.061-2.88c0-1.572,1.445-2.882,3.165-2.882
	c1.686,0,3.011,1.31,3.011,2.882c0.017,1.541-1.386,2.85-3.088,2.85 M158.093,64.93V48.3l5.263-0.523V64.93H158.093z"/>
<path fill="#BD0926" d="M175.738,64.93V53.702c0-1.834-0.583-1.768-1.307-1.768c-0.413,0-0.997,0.229-1.684,0.916v12.08h-5.265
	V53.114c0-1.703-0.103-2.914-0.479-4.584l4.781-0.883c0.137,0.373,0.327,0.934,0.327,1.472c0.997-0.817,2.408-1.505,4.472-1.505
	c3.37,0,4.387,2.056,4.387,4.32V64.93H175.738L175.738,64.93z"/>
<path fill="#BD0926" d="M191.083,65.356c-4.438,0-7.189-3.208-7.189-8.807c0-5.467,2.822-8.938,7.361-8.938
	c3.955,0,7.2,2.369,7.2,8.447c-0.013,6.701-3.715,9.318-7.38,9.318 M191.151,51.483c-1.066,0-1.616,0.981-1.616,5.173
	c0,3.302,0.195,4.86,1.637,4.845c1.235,0,1.614-1.572,1.614-5.598c0.016-3.361-0.402-4.42-1.646-4.42"/>
<path fill="#96BD0D" d="M108.418,45.401c0.23-0.242,0.51-0.553,0.811-0.922c1.018-0.215,2.84-0.712,4.453-1.751
	c1.043-0.603,1.872-1.318,2.461-2.122c2.01-2.737,1.176-6.305,1.138-6.456l-0.175-0.72l-0.384,0.498
	c-0.675,0.107-3.106,0.573-5.172,1.947c-0.914-3.258-3.528-5.617-3.645-5.721l-0.156-0.14l-0.428-0.41v0.654
	c-0.659,0.612-3.905,3.835-3.929,7.778c-0.022,3.925,3.208,7.228,3.862,7.818l0.005,0.613l0.577-0.506
	c0.017-0.014,0.24-0.211,0.576-0.561"/>
<g>
	<g>
		<defs>
			<path id="SVGID_1_" d="M105.434,34.566c-0.722,0.82-0.57,2.243,0.328,3.145c0.915,0.935,2.226,0.997,2.946,0.187
				c0.722-0.821,0.569-2.232-0.342-3.148c-0.488-0.491-1.097-0.74-1.667-0.74c-0.462-0.036-0.923,0.151-1.251,0.525"/>
		</defs>
		<clipPath id="SVGID_2_">
			<use xlink:href="#SVGID_1_"  overflow="visible"/>
		</clipPath>
		
			<radialGradient id="SVGID_3_" cx="-852.7271" cy="-249.0481" r="0.5245" gradientTransform="matrix(-5.1092 5.7998 6.4488 6.4755 -2643.3096 6596.8154)" gradientUnits="userSpaceOnUse">
			<stop  offset="0" style="stop-color:#FFFFFF"/>
			<stop  offset="0.022" style="stop-color:#FFFFFF"/>
			<stop  offset="0.4505" style="stop-color:#8EBD43"/>
			<stop  offset="1" style="stop-color:#477B4E"/>
		</radialGradient>
		<polygon clip-path="url(#SVGID_2_)" fill="url(#SVGID_3_)" points="106.953,31.483 102.501,36.467 107.214,41.265 111.666,36.218 
					"/>
	</g>
</g>
</svg>
